<?xml version="1.0" encoding="utf-8"?>
<!-- Generator: Adobe Illustrator 22.0.0, SVG Export Plug-In . SVG Version: 6.00 Build 0)  -->
<svg version="1.1" id="图层_1" xmlns="http://www.w3.org/2000/svg" xmlns:xlink="http://www.w3.org/1999/xlink" x="0px" y="0px"
	 viewBox="0 0 841.9 595.3" style="enable-background:new 0 0 841.9 595.3;" xml:space="preserve">
<style type="text/css">
	.st0{fill:#F27B20;}
	.st1{fill:#FFFFFF;stroke:#FFFFFF;stroke-width:0.5;stroke-miterlimit:10;}
	.st2{fill:#FFFFFF;}
</style>
<g>
	<g>
		<path class="st0" d="M370.4,257.5c-6.9,0.1-13.9,0.1-20.8,0c-1.2,0-1.7,0.4-2,1.5c-4.3,13.4-8.6,26.7-12.8,40.1
			c-1.2,3.8-2.4,7.5-3.8,11.7c-0.3-0.9-0.6-1.5-0.8-2c-5.6-16.5-11.2-33.1-16.9-49.6c-0.3-0.9-0.5-1.6-1.8-1.6
			c-7.1,0.1-14.2,0.1-21.3,0c-1.1,0-1.3,0.4-1.3,1.4c0,24.8,0,49.5,0,74.3c0,1.1,0.3,1.5,1.4,1.5c4.2-0.1,8.4-0.1,12.6,0
			c1.5,0,1.9-0.3,1.9-1.9c-0.1-16.7,0-33.3,0-50c0-0.6-0.1-1.2,0.3-2c0.3,0.9,0.6,1.6,0.8,2.2c5.8,16.7,11.7,33.4,17.4,50.1
			c0.4,1.2,1,1.6,2.2,1.5c3.1-0.1,6.1-0.2,9.2,0c1.8,0.1,2.5-0.6,3-2.2c5.7-16.8,11.6-33.6,17.4-50.5c0.2-0.6,0.2-1.3,0.9-1.7
			c0,0.7,0,1.2,0,1.8c0,16.9,0,33.9,0,50.8c0,1.3,0.2,1.8,1.7,1.8c4.2-0.1,8.4-0.1,12.6,0c1.3,0,1.6-0.4,1.6-1.7
			c0-24.6,0-49.3,0-73.9C371.9,257.9,371.7,257.5,370.4,257.5z"/>
		<path class="st0" d="M144.3,257.5c-4.6,0.1-9.2,0.1-13.8,0c-1.2,0-1.6,0.4-1.8,1.5c-4,16.8-8,33.6-12,50.3c-0.1,0.3,0,0.8-0.5,1
			c-0.2-0.6-0.3-1.2-0.5-1.8c-4.1-16.5-8.2-32.9-12.2-49.4c-0.3-1.2-0.8-1.6-2.1-1.6c-4.3,0.1-8.5,0.1-12.8,0
			c-1.2,0-1.6,0.4-1.8,1.5c-4.2,16.6-8.4,33.1-12.7,49.6c-0.1,0.4,0,0.9-0.6,1c-0.1-0.6-0.3-1.2-0.4-1.8c-3.8-16.3-7.6-32.6-11.4-49
			c-0.3-1.2-0.7-1.4-1.9-1.4c-4.6,0.1-9.3,0.1-13.9,0c-1.1,0-1.5,0.1-1.2,1.4c6.6,24.8,13.2,49.6,19.7,74.4c0.3,1.1,0.8,1.3,1.8,1.3
			c4.8,0,9.5-0.1,14.3,0c1.1,0,1.6-0.3,1.8-1.4c3.3-13.8,6.7-27.6,10.1-41.4c0.8-3.2,1.6-6.3,2.5-10c0.3,0.8,0.4,1.2,0.5,1.5
			c4.1,16.6,8.3,33.1,12.4,49.7c0.3,1.1,0.6,1.5,1.8,1.5c4.7-0.1,9.4-0.1,14.1,0c1,0,1.4-0.3,1.6-1.3c6.6-24.8,13.3-49.7,20-74.5
			C145.6,257.8,145.4,257.5,144.3,257.5z"/>
		<path class="st0" d="M262.7,258.9c-4.9,8.4-9.9,16.9-14.9,25.3c-0.7,1.2-1.4,2.4-2.2,3.8c-0.4-0.6-0.7-1.1-1-1.5
			c-5.5-9.2-10.9-18.4-16.4-27.6c-0.3-0.6-0.6-1.3-1.5-1.2c-5.9,0-11.9,0-18.1,0c0.4,0.8,0.7,1.2,0.9,1.7
			c8.7,14.6,17.5,29.1,26.3,43.6c0.7,1.2,1,2.3,1,3.7c0,8.9,0,17.7,0,26.6c0,1.2,0.3,1.6,1.6,1.5c4.6-0.1,9.3-0.1,13.9,0
			c1.3,0,1.5-0.4,1.5-1.6c-0.1-8.9,0-17.7,0-26.6c0-1,0.2-1.9,0.8-2.8c9-14.9,17.9-29.7,26.9-44.6c0.3-0.5,0.8-0.9,0.7-1.6
			c-5.7,0-11.4,0-17.1,0C263.8,257.5,263.3,257.9,262.7,258.9z"/>
		<path class="st0" d="M425.7,258.6c-0.3-0.9-0.9-1.1-1.7-1.1c-4.8,0-9.6,0.1-14.4,0c-1.3,0-1.9,0.4-2.3,1.6
			c-8.1,21.7-16.3,43.3-24.5,64.9c-1.3,3.5-2.6,6.9-4,10.6c5.3,0,10.5,0,15.6,0c1.1,0,1.6-0.4,2-1.4c1.6-4.8,3.4-9.6,5-14.4
			c0.4-1.1,0.9-1.5,2.1-1.5c8.6,0.1,17.2,0.1,25.7,0c1.2,0,1.7,0.4,2.1,1.5c1.6,4.8,3.2,9.6,4.9,14.4c0.2,0.6,0.2,1.4,1.3,1.4
			c5.5,0,11,0,16.6,0c-0.1-0.4-0.1-0.6-0.2-0.9C444.4,308.7,435.1,283.7,425.7,258.6z M406.3,304.8c3.3-9.4,6.6-18.7,9.9-28
			c0.1,0,0.2,0,0.3-0.1c3.2,9.3,6.4,18.6,9.7,28.1C419.5,304.8,413,304.8,406.3,304.8z"/>
		<path class="st0" d="M189.9,259c-0.4-1.1-0.9-1.5-2.1-1.5c-4.8,0.1-9.5,0.1-14.3,0c-1.4,0-1.9,0.5-2.3,1.7
			c-8.9,23.5-17.8,47.1-26.7,70.6c-0.6,1.6-1.2,3.1-1.8,4.9c5.6,0,10.9,0,16.3,0c1,0,1-0.7,1.2-1.3c1.7-4.9,3.5-9.8,5.2-14.7
			c0.3-1,0.8-1.3,1.9-1.3c8.7,0,17.4,0,26.1,0c1.1,0,1.5,0.3,1.8,1.3c1.6,4.9,3.3,9.7,4.9,14.6c0.3,1,0.8,1.4,1.8,1.3
			c4.9-0.1,9.7-0.1,14.6,0c1.4,0,1.6-0.3,1.1-1.6C208.3,308.4,199.1,283.7,189.9,259z M188.8,304.9c-5.7-0.1-11.5,0-17.2,0
			c-0.8,0-1.4,0.1-1-1.1c3.2-8.8,6.3-17.7,9.4-26.5c0.1-0.2,0.2-0.4,0.4-0.8c1.4,4.1,2.7,8,4.1,11.9c1.7,5,3.4,10,5.2,15
			C190.2,304.5,190.2,304.9,188.8,304.9z"/>
		<path class="st0" d="M521.7,276.5c-1.6-8.3-6.4-13.9-14.2-17c-3.9-1.5-8-1.9-12.2-1.9c-10.9,0-21.9,0-32.8,0
			c-1.4,0-1.7,0.4-1.7,1.7c0.1,12.2,0,24.5,0,36.7c0,12.3,0,24.6,0,36.9c0,1.4,0.2,1.9,1.8,1.8c4.5-0.1,9-0.1,13.4,0
			c1.4,0,1.8-0.3,1.8-1.8c-0.1-8,0-16-0.1-23.9c0-1.7,0.5-2,2.1-2c6.6,0,13.1,0.4,19.7-0.2c9.8-0.9,17.4-5.1,21.1-14.8
			C522.5,287,522.8,281.8,521.7,276.5z M504.7,288c-1.7,3.3-4.6,4.8-8.2,5.3c-4.9,0.8-9.9,0.3-14.9,0.4c-3.9,0.1-3.9,0-3.9-3.9
			c0-2.6,0-5.1,0-7.7c0-3.4,0-6.9,0-10.3c0-0.8,0.1-1.2,1.1-1.2c5.7,0.2,11.4-0.3,17,0.3C504.3,272.1,508.7,280.4,504.7,288z"/>
	</g>
	<g>
		<path class="st1" d="M590.8,334.6v-75.7h28.6c5,0,8.9,0.2,11.5,0.7c3.7,0.6,6.8,1.8,9.4,3.5c2.5,1.7,4.5,4.2,6.1,7.3
			c1.5,3.1,2.3,6.6,2.3,10.3c0,6.4-2,11.9-6.1,16.4c-4.1,4.5-11.5,6.7-22.2,6.7h-19.4v30.8H590.8z M600.8,294.9h19.6
			c6.5,0,11.1-1.2,13.8-3.6c2.7-2.4,4.1-5.8,4.1-10.2c0-3.2-0.8-5.9-2.4-8.1c-1.6-2.3-3.7-3.7-6.3-4.5c-1.7-0.4-4.8-0.7-9.4-0.7
			h-19.4V294.9z"/>
		<path class="st1" d="M658.3,297.7c0-12.6,3.4-22.4,10.1-29.5c6.8-7.1,15.5-10.7,26.1-10.7c7,0,13.3,1.7,18.9,5
			c5.6,3.3,9.9,8,12.8,14c2.9,6,4.4,12.8,4.4,20.3c0,7.7-1.5,14.6-4.7,20.6c-3.1,6.1-7.5,10.7-13.2,13.8c-5.7,3.1-11.8,4.7-18.4,4.7
			c-7.1,0-13.5-1.7-19.1-5.2c-5.6-3.4-9.9-8.1-12.8-14.1C659.8,310.7,658.3,304.4,658.3,297.7z M668.7,297.9
			c0,9.1,2.5,16.3,7.4,21.6c4.9,5.3,11.1,7.9,18.5,7.9c7.5,0,13.8-2.7,18.6-8c4.9-5.3,7.3-12.8,7.3-22.6c0-6.2-1-11.5-3.1-16.1
			c-2.1-4.6-5.1-8.2-9.1-10.7c-4-2.5-8.5-3.8-13.5-3.8c-7.1,0-13.2,2.4-18.3,7.3C671.2,278.3,668.7,286.5,668.7,297.9z"/>
		<path class="st1" d="M740.3,310.3l9.5-0.8c0.4,3.8,1.5,6.9,3.1,9.3c1.6,2.4,4.2,4.4,7.6,5.9c3.4,1.5,7.3,2.2,11.6,2.2
			c3.8,0,7.2-0.6,10.1-1.7c2.9-1.1,5.1-2.7,6.5-4.7c1.4-2,2.1-4.1,2.1-6.5c0-2.4-0.7-4.5-2.1-6.2c-1.4-1.8-3.7-3.3-6.8-4.5
			c-2-0.8-6.5-2-13.5-3.7c-7-1.7-11.8-3.2-14.6-4.7c-3.6-1.9-6.3-4.2-8.1-7.1c-1.8-2.8-2.7-5.9-2.7-9.4c0-3.8,1.1-7.4,3.3-10.7
			c2.2-3.3,5.3-5.8,9.5-7.6c4.2-1.7,8.8-2.6,13.9-2.6c5.6,0,10.6,0.9,14.9,2.7c4.3,1.8,7.6,4.5,9.9,8c2.3,3.5,3.5,7.5,3.7,11.9
			l-9.6,0.7c-0.5-4.8-2.3-8.4-5.2-10.8c-3-2.4-7.4-3.7-13.2-3.7c-6.1,0-10.5,1.1-13.3,3.3c-2.8,2.2-4.2,4.9-4.2,8c0,2.7,1,5,2.9,6.7
			c1.9,1.8,7,3.6,15.1,5.4c8.1,1.8,13.7,3.5,16.8,4.8c4.4,2,7.7,4.6,9.8,7.7c2.1,3.1,3.2,6.7,3.2,10.8c0,4-1.2,7.8-3.5,11.4
			c-2.3,3.6-5.6,6.3-9.9,8.3c-4.3,2-9.2,3-14.6,3c-6.9,0-12.6-1-17.2-3c-4.6-2-8.3-5-10.9-9C741.8,319.9,740.4,315.3,740.3,310.3z"
			/>
	</g>
	<rect x="551.9" y="257.5" class="st2" width="9.4" height="77.4"/>
</g>
</svg>
